<svg width="441" height="440" viewBox="0 0 441 440" fill="none" xmlns="http://www.w3.org/2000/svg">
<path fill-rule="evenodd" clip-rule="evenodd" d="M431.802 112.009C426.742 93.1804 411.837 78.3487 392.899 73.307C358.579 64.1587 220.987 64.1587 220.987 64.1587C220.987 64.1587 83.4139 64.1587 49.0939 73.307C30.1555 78.3487 15.2505 93.1804 10.1905 112.009C0.987183 146.145 0.987183 217.389 0.987183 217.389C0.987183 217.389 0.987183 288.595 10.1905 322.75C15.2505 341.579 30.1555 356.41 49.0939 361.434C83.4139 370.582 220.987 370.582 220.987 370.582C220.987 370.582 358.579 370.582 392.899 361.434C411.837 356.41 426.742 341.579 431.802 322.75C440.987 288.595 440.987 217.389 440.987 217.389C440.987 217.389 440.987 146.145 431.802 112.009Z" fill="#FF0000"/>
<path fill-rule="evenodd" clip-rule="evenodd" d="M176.998 283.047L291.306 217.377L176.998 151.707V283.047Z" fill="white"/>
</svg>
